<?xml version="1.0" encoding="utf-8"?>
<!-- Generated by Mocodo 4.3.2 -->
<svg width="552" height="120" viewBox="0 0 552 120" xmlns="http://www.w3.org/2000/svg">
<rect x="0" y="0" width="552" height="120" fill="#f7f7f7" stroke="none" stroke-width="0"/>

<!-- Association AJOUTER -->
<g>
	<line x1="254" y1="60" x2="148" y2="60" stroke="#d6604d" stroke-width="2"/>
	<line x1="45" y1="60" x2="148" y2="60" stroke="#d6604d" stroke-width="2"/>
	<g>
		<path d="M169 35 a14 14 90 0 1 14 14 V60 h-70 V49 a14 14 90 0 1 14 -14" fill="#f4a582" stroke="#f4a582" stroke-width="0"/>
		<path d="M183 60 v11 a14 14 90 0 1 -14 14 H127 a14 14 90 0 1 -14 -14 V60 H70" fill="#fddbc7" stroke="#fddbc7" stroke-width="0"/>
		<rect x="113" y="35" width="70" height="50" fill="none" rx="14" stroke="#d6604d" stroke-width="2"/>
		<line x1="113" y1="60" x2="183" y2="60" stroke="#d6604d" stroke-width="1"/>
		<text x="120" y="52.75" fill="#000000" font-family="Verdana" font-size="12">AJOUTER</text>
	</g>
	<text x="189" y="77" fill="#2166ac" font-family="Verdana" font-size="12">1,1</text>
	<text x="86" y="77" fill="#2166ac" font-family="Verdana" font-size="12">0,N</text>
</g>

<!-- Association CARACTERISER -->
<g>
	<line x1="254" y1="60" x2="380" y2="60" stroke="#d6604d" stroke-width="2"/>
	<line x1="505" y1="60" x2="380" y2="60" stroke="#d6604d" stroke-width="2"/>
	<g>
		<path d="M421 35 a14 14 90 0 1 14 14 V60 h-110 V49 a14 14 90 0 1 14 -14" fill="#f4a582" stroke="#f4a582" stroke-width="0"/>
		<path d="M435 60 v11 a14 14 90 0 1 -14 14 H339 a14 14 90 0 1 -14 -14 V60 H110" fill="#fddbc7" stroke="#fddbc7" stroke-width="0"/>
		<rect x="325" y="35" width="110" height="50" fill="none" rx="14" stroke="#d6604d" stroke-width="2"/>
		<line x1="325" y1="60" x2="435" y2="60" stroke="#d6604d" stroke-width="1"/>
		<text x="333" y="52.75" fill="#000000" font-family="Verdana" font-size="12">CARACTÉRISER</text>
	</g>
	<text x="298" y="77" fill="#2166ac" font-family="Verdana" font-size="12">0,N</text>
	<text x="440" y="77" fill="#2166ac" font-family="Verdana" font-size="12">0,N</text>
</g>

<!-- Entity LISTE -->
<g>
	<g>
		<rect x="9" y="18" width="72" height="25" fill="#92c5de" stroke="none" stroke-width="0" opacity="1"/>
		<rect x="9" y="43" width="72" height="59" fill="#d1e5f0" stroke="none" stroke-width="0" opacity="1"/>
		<rect x="9" y="18" width="72" height="84" fill="none" stroke="#4393c3" stroke-width="2" opacity="1"/>
		<line x1="9" y1="43" x2="81" y2="43" stroke="#4393c3" stroke-width="1"/>
	</g>
	<text x="27" y="35.75" fill="#000000" font-family="Verdana" font-size="12">LISTE</text>
	<text x="14" y="60.8" fill="#000000" font-family="Verdana" font-size="12">code_liste</text>
	<line x1="14" y1="63" x2="76" y2="63" stroke="#000000" stroke-width="1"/>
	<text x="14" y="77.8" fill="#000000" font-family="Verdana" font-size="12">titre</text>
	<text x="14" y="94.8" fill="#000000" font-family="Verdana" font-size="12">position</text>
</g>

<!-- Entity CARTE -->
<g>
	<g>
		<rect x="215" y="9" width="78" height="25" fill="#92c5de" stroke="none" stroke-width="0" opacity="1"/>
		<rect x="215" y="34" width="78" height="77" fill="#d1e5f0" stroke="none" stroke-width="0" opacity="1"/>
		<rect x="215" y="9" width="78" height="102" fill="none" stroke="#4393c3" stroke-width="2" opacity="1"/>
		<line x1="215" y1="34" x2="293" y2="34" stroke="#4393c3" stroke-width="1"/>
	</g>
	<text x="234" y="26.75" fill="#000000" font-family="Verdana" font-size="12">CARTE</text>
	<text x="220" y="51.8" fill="#000000" font-family="Verdana" font-size="12">code_carte</text>
	<line x1="220" y1="54" x2="287" y2="54" stroke="#000000" stroke-width="1"/>
	<text x="220" y="68.8" fill="#000000" font-family="Verdana" font-size="12">contenu</text>
	<text x="220" y="85.8" fill="#000000" font-family="Verdana" font-size="12">position</text>
	<text x="220" y="102.8" fill="#000000" font-family="Verdana" font-size="12">couleur</text>
</g>

<!-- Entity LABEL -->
<g>
	<g>
		<rect x="467" y="18" width="76" height="25" fill="#92c5de" stroke="none" stroke-width="0" opacity="1"/>
		<rect x="467" y="43" width="76" height="59" fill="#d1e5f0" stroke="none" stroke-width="0" opacity="1"/>
		<rect x="467" y="18" width="76" height="84" fill="none" stroke="#4393c3" stroke-width="2" opacity="1"/>
		<line x1="467" y1="43" x2="543" y2="43" stroke="#4393c3" stroke-width="1"/>
	</g>
	<text x="486" y="35.75" fill="#000000" font-family="Verdana" font-size="12">LABEL</text>
	<text x="472" y="60.8" fill="#000000" font-family="Verdana" font-size="12">code_label</text>
	<line x1="472" y1="63" x2="537" y2="63" stroke="#000000" stroke-width="1"/>
	<text x="472" y="77.8" fill="#000000" font-family="Verdana" font-size="12">nom</text>
	<text x="472" y="94.8" fill="#000000" font-family="Verdana" font-size="12">couleur</text>
</g>
</svg>